<svg version="1.0" viewBox="0 0 32 32" xml:space="preserve" xmlns="http://www.w3.org/2000/svg"><path d="M2.605 10.701c1.529-3.173 5.093-5.816 8.572-7.331L7.866 2.224A1.143 1.143 0 0 1 8.613.063l6.48 2.243c.575.198.897.903.707 1.453l-2.242 6.481a1.144 1.144 0 1 1-2.16-.747l1.509-4.362c-3.32 1.256-6.88 3.735-8.242 6.562a12.501 12.501 0 0 0-1.119 7.172 12.485 12.485 0 0 0 4.868 8.3 12.484 12.484 0 0 0 9.311 2.426 12.487 12.487 0 0 0 8.301-4.868 12.496 12.496 0 0 0 2.422-9.364c-.057-.602.348-1.249.945-1.344.621-.104 1.217.418 1.328 1.03.012.073.02.147.02.222a14.766 14.766 0 0 1-2.891 10.836 14.769 14.769 0 0 1-9.813 5.752 14.742 14.742 0 0 1-11.002-2.867 14.755 14.755 0 0 1-5.752-9.809 14.775 14.775 0 0 1 1.322-8.478z" fill="#254ce6" class="fill-000000"></path></svg>